<?xml version="1.0" encoding="UTF-8"?>
<svg width="361px" height="241px" viewBox="0 0 361 241" version="1.1" xmlns="http://www.w3.org/2000/svg" xmlns:xlink="http://www.w3.org/1999/xlink">
    <!-- Generator: Sketch 55.2 (78181) - https://sketchapp.com -->
    <title>Path</title>
    <desc>Created with Sketch.</desc>
    <g id="Page-1" stroke="none" stroke-width="1" fill="none" fill-rule="evenodd">
        <g id="Icon" transform="translate(-71.000000, -127.000000)" fill="#FFFFFF" fill-rule="nonzero">
            <g id="baseline-phonelink-24px" transform="translate(71.000000, 67.000000)">
                <path d="M60.1666667,90.125 L330.916667,90.125 L330.916667,60 L60.1666667,60 C43.6208333,60 30.0833333,73.55625 30.0833333,90.125 L30.0833333,255.8125 L0,255.8125 L0,301 L210.583333,301 L210.583333,255.8125 L60.1666667,255.8125 L60.1666667,90.125 Z M345.958333,120.25 L255.708333,120.25 C247.435417,120.25 240.666667,127.028125 240.666667,135.3125 L240.666667,285.9375 C240.666667,294.221875 247.435417,301 255.708333,301 L345.958333,301 C354.23125,301 361,294.221875 361,285.9375 L361,135.3125 C361,127.028125 354.23125,120.25 345.958333,120.25 Z M330.916667,255.8125 L270.75,255.8125 L270.75,150.375 L330.916667,150.375 L330.916667,255.8125 Z" id="Shape"></path>
            </g>
        </g>
    </g>
</svg>